<svg
		width="15"
		height="18"
		viewBox="0 0 15 18"
		fill="none"
		xmlns="http://www.w3.org/2000/svg">
	<path
			d="M7.73632 3.98601C8.51595 3.98601 9.49324 3.45894 10.0752 2.75617C10.6023 2.11929 10.9866 1.22984 10.9866 0.340404C10.9866 0.219615 10.9756 0.0988268 10.9537 0C10.0862 0.0329423 9.04303 0.58198 8.41713 1.31769C7.92299 1.87771 7.47278 2.75617 7.47278 3.65659C7.47278 3.78836 7.49474 3.92013 7.50572 3.96405C7.56063 3.97503 7.64847 3.98601 7.73632 3.98601ZM4.99113 17.2727C6.05626 17.2727 6.52843 16.559 7.85711 16.559C9.20774 16.559 9.50422 17.2508 10.6901 17.2508C11.8541 17.2508 12.6337 16.1747 13.3694 15.1205C14.193 13.9126 14.5334 12.7267 14.5554 12.6718C14.4785 12.6498 12.2494 11.7384 12.2494 9.17991C12.2494 6.9618 14.0063 5.96255 14.1052 5.88568C12.9412 4.21661 11.1733 4.17269 10.6901 4.17269C9.38343 4.17269 8.3183 4.9633 7.64847 4.9633C6.92374 4.9633 5.96842 4.21661 4.8374 4.21661C2.68517 4.21661 0.5 5.99549 0.5 9.3556C0.5 11.4419 1.31258 13.6491 2.31182 15.0766C3.16832 16.2845 3.91501 17.2727 4.99113 17.2727Z"
			fill="black" />
</svg>