<svg
		width="24"
		height="24"
		viewBox="0 0 24 24"
		fill="none"
		xmlns="http://www.w3.org/2000/svg">
	<path
			d="M18.7501 4C20.4831 4 21.8993 5.35645 21.9949 7.06558L22.0001 7.25V16.75C22.0001 18.483 20.6436 19.8992 18.9345 19.9949L18.7501 20H10.2489C9.48473 20 8.74738 19.7308 8.16447 19.2436L8.00942 19.1053L3.01373 14.3553C1.71294 13.1185 1.66108 11.0613 2.8979 9.76055L3.01373 9.64472L8.00942 4.89472C8.56319 4.36818 9.28302 4.05515 10.0412 4.00663L10.2489 4H18.7501ZM18.7501 5.5H10.2489C9.85612 5.5 9.4765 5.63205 9.16981 5.87227L9.04301 5.98177L4.04732 10.7318L3.98495 10.7941C3.35815 11.4534 3.34601 12.4733 3.9307 13.1463L4.04732 13.2682L9.04301 18.0182C9.32764 18.2889 9.69374 18.4547 10.0815 18.492L10.2489 18.5H18.7501C19.6682 18.5 20.4213 17.7929 20.4943 16.8935L20.5001 16.75V7.25C20.5001 6.33183 19.7929 5.57881 18.8936 5.5058L18.7501 5.5ZM11.4463 8.39705L11.5304 8.46967L14.0002 10.939L16.4697 8.46967C16.7626 8.17678 17.2375 8.17678 17.5304 8.46967C17.7967 8.73594 17.8209 9.1526 17.603 9.44621L17.5304 9.53033L15.0612 12L17.5304 14.4697C17.8233 14.7626 17.8233 15.2374 17.5304 15.5303C17.2641 15.7966 16.8475 15.8208 16.5538 15.6029L16.4697 15.5303L14.0002 13.061L11.5304 15.5303C11.2375 15.8232 10.7626 15.8232 10.4697 15.5303C10.2035 15.2641 10.1793 14.8474 10.3971 14.5538L10.4697 14.4697L12.9392 12L10.4697 9.53033C10.1768 9.23744 10.1768 8.76256 10.4697 8.46967C10.736 8.2034 11.1527 8.1792 11.4463 8.39705Z"
			fill="#212429" />
</svg>