<svg
		width="24"
		height="24"
		viewBox="0 0 24 24"
		fill="none"
		xmlns="http://www.w3.org/2000/svg">
	<path
			fill-rule="evenodd"
			clip-rule="evenodd"
			d="M13.1687 1.44152C12.8192 1.27995 12.43 1.18994 12.02 1.18994C10.9917 1.18994 10.094 1.75624 9.62658 2.59768C7.0816 3.56485 5.27002 6.02836 5.27002 8.91003V11.8C5.27002 12.0147 5.22145 12.3287 5.1286 12.6632C5.03603 12.9966 4.91608 13.2906 4.80657 13.4747L4.80581 13.476L3.6575 15.3832L3.65738 15.3834C3.19635 16.1496 3.10015 17.0092 3.38294 17.773C3.66541 18.5358 4.29717 19.1253 5.13958 19.4104L5.14236 19.4114C6.23095 19.7751 7.3405 20.0501 8.4608 20.2364C8.64775 20.7987 8.96351 21.3042 9.36968 21.7104C10.0442 22.3849 10.9925 22.8101 12.02 22.8101C13.6744 22.8101 15.0857 21.7272 15.5809 20.2345C16.6969 20.0483 17.8021 19.774 18.8866 19.4118C20.5548 18.8595 21.2787 16.8934 20.3731 15.3842L20.3725 15.3832L19.2265 13.4798C19.1194 13.2924 19.0019 12.9974 18.9108 12.6654C18.8187 12.3294 18.77 12.0149 18.77 11.8V10.951C18.5179 10.9833 18.2609 11 18 11C17.7529 11 17.5093 10.9851 17.27 10.956V11.8C17.27 12.1952 17.3514 12.6507 17.4642 13.0621C17.5773 13.4744 17.7383 13.9019 17.9304 14.2348L17.9303 14.2349L17.9375 14.2469L19.0869 16.1559L19.0872 16.1564C19.501 16.8468 19.1654 17.7398 18.4146 17.9879L18.4124 17.9887C14.2571 19.377 9.77448 19.3772 5.61913 17.9892C5.16237 17.8342 4.89953 17.549 4.7896 17.2521C4.67992 16.9559 4.6937 16.5706 4.94255 16.1569L4.94266 16.1567L6.09255 14.2469L6.09255 14.2469L6.09423 14.2441C6.29452 13.9081 6.45923 13.4776 6.57395 13.0644C6.6886 12.6514 6.77002 12.1954 6.77002 11.8V8.91003C6.77002 6.56617 8.31235 4.57712 10.4358 3.90405C10.9759 3.75317 11.5463 3.68128 12.1425 3.69427C12.3263 2.8659 12.6814 2.10196 13.1687 1.44152ZM10.2603 20.4588C11.4312 20.554 12.6078 20.5538 13.7786 20.4581C13.3652 20.9762 12.7291 21.3101 12.02 21.3101C11.4075 21.3101 10.8359 21.0553 10.4303 20.6497C10.3702 20.5896 10.3134 20.5258 10.2603 20.4588Z"
			fill="#212429" />
	<circle
			cx="18"
			cy="5"
			r="4"
			fill="#FF8C1C" />
</svg>