<svg
		width="17"
		height="17"
		viewBox="0 0 17 17"
		fill="none"
		xmlns="http://www.w3.org/2000/svg">
	<path
			fill-rule="evenodd"
			clip-rule="evenodd"
			d="M15.8654 1.28033C16.1583 0.987437 16.1583 0.512563 15.8654 0.21967C15.5725 -0.0732233 15.0976 -0.0732233 14.8047 0.21967L8.04252 6.98186L1.28033 0.21967C0.987437 -0.0732233 0.512563 -0.0732233 0.21967 0.21967C-0.0732233 0.512563 -0.0732233 0.987437 0.21967 1.28033L6.98186 8.04252L0.21967 14.8047C-0.0732233 15.0976 -0.0732233 15.5725 0.21967 15.8654C0.512563 16.1583 0.987437 16.1583 1.28033 15.8654L8.04252 9.10318L14.8047 15.8654C15.0976 16.1583 15.5725 16.1583 15.8654 15.8654C16.1583 15.5725 16.1583 15.0976 15.8654 14.8047L9.10318 8.04252L15.8654 1.28033Z"
			fill="#212429" />
</svg>