<svg
        width="32"
        height="32"
        viewBox="0 0 32 32"
        fill="none"
        xmlns="http://www.w3.org/2000/svg">
    <rect
            width="32"
            height="32"
            rx="16"
            fill="#F4F4F5" />
    <path
            fill-rule="evenodd"
            clip-rule="evenodd"
            d="M21.4203 11.6971C21.7132 11.4042 21.7132 10.9293 21.4203 10.6364C21.1274 10.3435 20.6526 10.3435 20.3597 10.6364L16.0283 14.9678L11.697 10.6364C11.4041 10.3435 10.9292 10.3435 10.6363 10.6364C10.3434 10.9293 10.3434 11.4042 10.6363 11.6971L14.9677 16.0284L10.6363 20.3598C10.3434 20.6527 10.3434 21.1275 10.6363 21.4204C10.9292 21.7133 11.4041 21.7133 11.697 21.4204L16.0283 17.0891L20.3597 21.4204C20.6526 21.7133 21.1274 21.7133 21.4203 21.4204C21.7132 21.1275 21.7132 20.6527 21.4203 20.3598L17.089 16.0284L21.4203 11.6971Z"
            fill="#212429" />
</svg>