<svg
		width="26"
		height="27"
		viewBox="0 0 26 27"
		fill="none"
		xmlns="http://www.w3.org/2000/svg">
	<path
			d="M16.5341 13.7461C17.2806 14.5105 17.703 15.4367 18.009 16.7175L18.1415 17.3256L18.3803 18.5875C18.499 19.1806 18.5908 19.51 18.7193 19.7978C19.1202 20.6962 19.826 21.6168 20.8466 22.5524C21.2537 22.9256 21.2812 23.5582 20.908 23.9653C20.5347 24.3724 19.9022 24.3999 19.4951 24.0267C18.2853 22.9176 17.4146 21.7821 16.8929 20.6128C16.6944 20.1681 16.5736 19.7455 16.4309 19.0396L16.1505 17.5722L16.1335 17.492C15.8926 16.3599 15.5949 15.6469 15.1031 15.1433C14.1528 14.1701 11.9609 14.4273 11.3743 15.3548C10.6252 16.5393 10.4341 18.5494 11.0289 20.5756C11.4885 22.1411 12.0982 23.6817 12.8587 25.1979C13.1064 25.6916 12.9069 26.2925 12.4132 26.5401C11.9196 26.7877 11.3186 26.5883 11.071 26.0946C10.2574 24.4724 9.60347 22.8204 9.10987 21.139C8.36122 18.5887 8.60865 15.986 9.68393 14.2858C10.9547 12.2765 14.6732 11.8402 16.5341 13.7461ZM13.3799 16.8332C13.9319 16.8148 14.3942 17.2474 14.4126 17.7994C14.4812 19.8623 15.1522 21.8566 16.338 23.5382L16.6 23.8936L17.0002 24.4137C17.3371 24.8513 17.2554 25.4792 16.8177 25.8161C16.4198 26.1223 15.8648 26.0826 15.514 25.744L15.4153 25.6335L15.0151 25.1135C13.4109 23.0293 12.5011 20.4944 12.4137 17.8658C12.3953 17.3139 12.8279 16.8515 13.3799 16.8332ZM8.43414 10.0563C11.2499 7.97152 14.9332 8.08467 17.4108 9.67724C18.6507 10.4742 19.5897 11.4036 20.214 12.4684C20.4933 12.9448 20.3335 13.5575 19.8571 13.8368C19.3806 14.1161 18.7679 13.9563 18.4886 13.4799C18.0331 12.7028 17.3179 11.9951 16.3294 11.3597C14.5127 10.1919 11.7276 10.1064 9.62425 11.6637C7.43948 13.2813 6.51967 16.052 6.79359 18.9729C6.947 20.6087 7.43997 22.2625 8.27785 23.938C8.52488 24.432 8.32469 25.0326 7.83073 25.2797C7.33677 25.5267 6.73608 25.3265 6.48906 24.8325C5.54362 22.942 4.97959 21.0498 4.80233 19.1596C4.46857 15.6007 5.61662 12.1425 8.43414 10.0563ZM20.6738 15.7911C21.2254 15.7627 21.6955 16.1868 21.7239 16.7384C21.7652 17.5424 21.9639 18.2 22.3125 18.7289C22.6051 19.173 22.8652 19.4295 23.0637 19.5285L23.145 19.5613C23.6736 19.7212 23.9726 20.2793 23.8128 20.8079C23.6529 21.3366 23.0948 21.6356 22.5661 21.4757C21.8375 21.2554 21.2106 20.6916 20.6424 19.8293C20.0882 18.9883 19.7854 17.9863 19.7265 16.8411C19.6981 16.2896 20.1223 15.8194 20.6738 15.7911ZM10.7376 5.67179C10.9643 6.17542 10.7398 6.76744 10.2362 6.99412C7.7826 8.09845 5.97724 9.67216 4.79127 11.7257C3.30695 14.2958 2.90657 17.3003 3.23889 19.8324C3.31075 20.38 2.9251 20.8822 2.37751 20.954C1.82992 21.0259 1.32775 20.6403 1.25589 20.0927C0.870813 17.1585 1.32877 13.722 3.05936 10.7255C4.46178 8.29715 6.59003 6.44197 9.4153 5.17034C9.91892 4.94366 10.5109 5.16817 10.7376 5.67179ZM13.8625 4.62234C16.3024 4.67234 18.7311 5.79349 21.1408 7.93749C23.5714 10.1 25.0361 13.0396 25.5333 16.7111C25.6074 17.2584 25.2238 17.7621 24.6765 17.8362C24.1292 17.9103 23.6255 17.5268 23.5513 16.9795C23.1159 13.764 21.8698 11.2631 19.8114 9.43168C17.7321 7.58168 15.7381 6.66119 13.8216 6.62192C13.2694 6.6106 12.8309 6.15381 12.8423 5.60164C12.8536 5.04947 13.3104 4.61102 13.8625 4.62234ZM4.70055 4.64154C5.06787 5.05396 5.0313 5.68607 4.61887 6.05339C4.26137 6.37179 3.88623 6.75185 3.49452 7.19341C3.12607 7.60875 2.74862 8.14792 2.3661 8.81019C2.08987 9.28843 1.47825 9.45219 1.00001 9.17597C0.521768 8.89974 0.358003 8.28812 0.634231 7.80987C1.08019 7.03777 1.53359 6.39011 1.99838 5.86618C2.43991 5.36846 2.86966 4.93307 3.28869 4.55986C3.70112 4.19254 4.33323 4.22911 4.70055 4.64154ZM13.4813 0.686969C16.4049 0.823914 18.8536 1.62324 20.8543 3.16819C21.2914 3.50574 21.3721 4.13374 21.0346 4.57087C20.697 5.00799 20.069 5.08871 19.6319 4.75116C17.9715 3.469 15.9179 2.8033 13.3877 2.68478C10.8501 2.56591 8.77222 3.06356 7.10154 3.99015C6.58959 4.27409 6.01511 4.13201 5.72607 3.6614C5.43703 3.19079 5.56693 2.57292 6.05483 2.28593C8.10245 1.08147 10.5651 0.550369 13.4813 0.686969Z"
			fill="#6B7280" />
</svg>